<svg xmlns="http://www.w3.org/2000/svg" width="687" height="687" viewBox="0 0 687 687" version="1.1"><path d="M 170 74.612 C 127.322 83.876, 95.220 115.111, 86.888 155.478 C 84.110 168.938, 84.112 226.480, 86.890 232.500 C 92.942 245.613, 110.055 247.689, 117.212 236.179 C 119.447 232.585, 119.512 231.728, 120.006 199 L 120.512 165.500 123.641 156.739 C 143.690 100.593, 202.389 90.659, 249.708 135.402 C 304.917 187.607, 357.233 188.124, 408 136.966 C 441.047 103.665, 466.716 99.452, 490.530 123.423 C 510.318 143.341, 511.920 162.995, 497.086 203.856 C 485.257 236.441, 489.494 266.789, 509.762 294.637 L 513.500 299.775 522.048 292.637 C 526.749 288.712, 532.310 284.128, 534.407 282.451 L 538.220 279.402 533.415 271.975 C 519.480 250.434, 518.915 237.407, 530.523 205.382 C 546.570 161.113, 541.335 127.717, 514 99.978 C 476.866 62.295, 430.159 66.434, 385.452 111.370 C 345.644 151.381, 317.091 151.279, 275.500 110.979 C 242.659 79.157, 206.493 66.690, 170 74.612 M 298.734 211.077 C 289.698 213.232, 283.644 218.164, 279.804 226.500 L 277.500 231.500 277.500 316 L 277.500 400.500 279.889 405.788 C 289.329 426.678, 318.519 426.504, 328.196 405.500 L 330.500 400.500 330.500 316 C 330.500 220.190, 330.974 225.918, 322.387 218.003 C 315.475 211.631, 306.918 209.126, 298.734 211.077 M 216.977 277.355 C 185.865 285.749, 143.079 336.128, 130.182 379.553 C 85.654 529.479, 241.910 660.889, 383.500 592.593 C 511.863 530.677, 519.712 341.202, 396.500 278.757 C 367.771 264.197, 353.327 304.715, 380.832 322.710 C 489.497 393.806, 435.907 565.967, 305 566.326 C 170.927 566.693, 118.040 397.821, 228.795 323 C 254.888 305.374, 245.631 269.625, 216.977 277.355 M 556.118 277.080 C 549.493 278.381, 546.553 280.324, 528.555 295.293 C 498.392 320.380, 497.277 328.942, 519.857 362.057 C 538.809 389.850, 536.350 388.753, 551.741 376.285 C 621.943 319.416, 616.495 324.849, 610.798 317.385 C 593.547 294.785, 576.690 278.957, 567.852 277.062 C 562.327 275.877, 562.242 275.877, 556.118 277.080 M 598.166 347.950 L 592.832 352.809 603.536 367.434 C 609.423 375.477, 615.057 382.495, 616.054 383.029 C 621.287 385.830, 628 382.115, 628 376.418 C 628 374.592, 613.875 354.550, 605.390 344.336 C 603.922 342.569, 604.256 342.402, 598.166 347.950 M 562.306 377.324 C 555.174 383.077, 554.938 382.150, 567.347 397.055 C 579.659 411.843, 582.330 413.973, 586.651 412.454 C 595.986 409.171, 591.094 399.101, 567.642 373.324 C 567.554 373.228, 565.153 375.028, 562.306 377.324" stroke="none" fill="#fafbfb" fill-rule="evenodd"/><path d="M 0 343.501 L 0 687.003 343.750 686.751 L 687.500 686.500 687.751 343.250 L 688.003 0 344.001 0 L 0 0 0 343.501 M 0.494 344 C 0.494 532.925, 0.609 610.213, 0.750 515.750 C 0.891 421.288, 0.891 266.713, 0.750 172.250 C 0.609 77.788, 0.494 155.075, 0.494 344 M 170 74.612 C 127.322 83.876, 95.220 115.111, 86.888 155.478 C 84.110 168.938, 84.112 226.480, 86.890 232.500 C 92.942 245.613, 110.055 247.689, 117.212 236.179 C 119.447 232.585, 119.512 231.728, 120.006 199 L 120.512 165.500 123.641 156.739 C 143.690 100.593, 202.389 90.659, 249.708 135.402 C 304.917 187.607, 357.233 188.124, 408 136.966 C 441.047 103.665, 466.716 99.452, 490.530 123.423 C 510.318 143.341, 511.920 162.995, 497.086 203.856 C 485.257 236.441, 489.494 266.789, 509.762 294.637 L 513.500 299.775 522.048 292.637 C 526.749 288.712, 532.310 284.128, 534.407 282.451 L 538.220 279.402 533.415 271.975 C 519.480 250.434, 518.915 237.407, 530.523 205.382 C 546.570 161.113, 541.335 127.717, 514 99.978 C 476.866 62.295, 430.159 66.434, 385.452 111.370 C 345.644 151.381, 317.091 151.279, 275.500 110.979 C 242.659 79.157, 206.493 66.690, 170 74.612 M 298.734 211.077 C 289.698 213.232, 283.644 218.164, 279.804 226.500 L 277.500 231.500 277.500 316 L 277.500 400.500 279.889 405.788 C 289.329 426.678, 318.519 426.504, 328.196 405.500 L 330.500 400.500 330.500 316 C 330.500 220.190, 330.974 225.918, 322.387 218.003 C 315.475 211.631, 306.918 209.126, 298.734 211.077 M 216.977 277.355 C 185.865 285.749, 143.079 336.128, 130.182 379.553 C 85.654 529.479, 241.910 660.889, 383.500 592.593 C 511.863 530.677, 519.712 341.202, 396.500 278.757 C 367.771 264.197, 353.327 304.715, 380.832 322.710 C 489.497 393.806, 435.907 565.967, 305 566.326 C 170.927 566.693, 118.040 397.821, 228.795 323 C 254.888 305.374, 245.631 269.625, 216.977 277.355 M 556.118 277.080 C 549.493 278.381, 546.553 280.324, 528.555 295.293 C 498.392 320.380, 497.277 328.942, 519.857 362.057 C 538.809 389.850, 536.350 388.753, 551.741 376.285 C 621.943 319.416, 616.495 324.849, 610.798 317.385 C 593.547 294.785, 576.690 278.957, 567.852 277.062 C 562.327 275.877, 562.242 275.877, 556.118 277.080 M 598.166 347.950 L 592.832 352.809 603.536 367.434 C 609.423 375.477, 615.057 382.495, 616.054 383.029 C 621.287 385.830, 628 382.115, 628 376.418 C 628 374.592, 613.875 354.550, 605.390 344.336 C 603.922 342.569, 604.256 342.402, 598.166 347.950 M 562.306 377.324 C 555.174 383.077, 554.938 382.150, 567.347 397.055 C 579.659 411.843, 582.330 413.973, 586.651 412.454 C 595.986 409.171, 591.094 399.101, 567.642 373.324 C 567.554 373.228, 565.153 375.028, 562.306 377.324" stroke="none" fill="#1863a3" fill-rule="evenodd"/></svg>